<svg xmlns="http://www.w3.org/2000/svg" viewBox="0 0 24 24" fill="#3b82f6">
  <path d="M12 2C6.48 2 2 6.48 2 12C2 17.52 6.48 22 12 22C17.52 22 22 17.52 22 12C22 6.48 17.52 2 12 2ZM8 17C7.45 17 7 16.55 7 16C7 15.45 7.45 15 8 15C8.55 15 9 15.45 9 16C9 16.55 8.55 17 8 17ZM9 13C9 13.55 8.55 14 8 14C7.45 14 7 13.55 7 13V9C7 8.45 7.45 8 8 8C8.55 8 9 8.45 9 9V13ZM12 18C10.9 18 10 17.1 10 16H14C14 17.1 13.1 18 12 18ZM16 14C15.45 14 15 13.55 15 13V9C15 8.45 15.45 8 16 8C16.55 8 17 8.45 17 9V13C17 13.55 16.55 14 16 14Z"/>
</svg>
